<svg width="40" height="40" viewBox="0 0 40 40" fill="none" xmlns="http://www.w3.org/2000/svg">
<circle cx="19.0908" cy="20" r="16.3636" fill="white"/>
<path d="M20 0C8.9543 0 0 8.9543 0 20C0 31.0457 8.9543 40 20 40C31.0457 40 40 31.0457 40 20C40 8.9543 31.0457 0 20 0ZM30.1266 18.1548C28.0028 18.1548 25.9364 17.4656 24.3453 16.2994L24.3327 24.2291C24.3313 25.6984 23.8819 27.1324 23.0445 28.3397C22.207 29.547 21.0212 30.4701 19.6454 30.986C18.2696 31.5018 16.7692 31.5859 15.3444 31.2268C13.9196 30.8678 12.6382 30.0827 11.6712 28.9765C10.7041 27.8702 10.0975 26.4954 9.93213 25.0354C9.76679 23.5754 10.0506 22.0997 10.7458 20.8052C11.441 19.5107 12.5144 18.459 13.8228 17.7904C15.1312 17.1219 16.6124 16.8682 18.0688 17.0634V20.9575C17.3818 20.7546 16.6483 20.773 15.9725 21.0104C15.2966 21.2477 14.7126 21.6918 14.3033 22.2796C13.894 22.8675 13.6802 23.5693 13.6922 24.2856C13.7042 25.0018 13.9414 25.6961 14.3701 26.2699C14.7989 26.8437 15.3974 27.268 16.0809 27.4826C16.7643 27.6971 17.498 27.691 18.1777 27.4652C18.8575 27.2394 19.449 26.8052 19.8682 26.2244C20.2873 25.6435 20.513 24.9454 20.5131 24.2291V8.54164H24.519C24.519 9.278 24.664 10.0072 24.9458 10.6875C25.2276 11.3678 25.6407 11.9859 26.1613 12.5066C26.682 13.0273 27.3002 13.4403 27.9805 13.7221C28.6608 14.0039 29.39 14.1489 30.1263 14.1489L30.1266 18.1548Z" fill="#0A58CA"/>
</svg>
