<svg width="40" height="40" viewBox="0 0 40 40" fill="none" xmlns="http://www.w3.org/2000/svg">
<ellipse cx="20.4001" cy="20.8" rx="14.8" ry="14.4" fill="white"/>
<path d="M28.2561 15.6222V12.4164V11.9372L27.7769 11.9388L24.571 11.9502L24.5832 15.6344L28.2561 15.6222Z" fill="#0A58CA"/>
<path d="M19.9011 24.1309C22.0112 24.1309 23.729 22.4147 23.729 20.3046C23.729 19.4721 23.4577 18.7005 23.0037 18.0726C22.3093 17.1093 21.1779 16.4766 19.9011 16.4766C18.6243 16.4766 17.4945 17.1093 16.7984 18.0726C16.3444 18.7005 16.0747 19.4721 16.0747 20.3046C16.0747 22.4147 17.7909 24.1309 19.9011 24.1309Z" fill="#0A58CA"/>
<path d="M20.0008 0C8.95468 0 0 8.95305 0 19.9992C0 31.0453 8.95468 40 20.0008 40C31.0453 40 40 31.0453 40 19.9992C40 8.95305 31.0445 0 20.0008 0ZM30.7732 18.0726V26.9753C30.7732 29.2917 28.8873 31.1761 26.5708 31.1761H13.2302C10.9129 31.1761 9.02859 29.2917 9.02859 26.9753V18.0726V13.6347C9.02859 11.3174 10.9129 9.43307 13.2302 9.43307H26.5708C28.8873 9.43307 30.7732 11.3174 30.7732 13.6347V18.0726Z" fill="#0A58CA"/>
<path d="M25.8464 20.3046C25.8464 23.5818 23.1799 26.25 19.901 26.25C16.622 26.25 13.9572 23.5818 13.9572 20.3046C13.9572 19.5143 14.1139 18.763 14.3933 18.0726H11.1477V26.9753C11.1477 28.1238 12.0818 29.0578 13.2302 29.0578H26.5709C27.7193 29.0578 28.6534 28.1238 28.6534 26.9753V18.0726H25.4062C25.688 18.763 25.8464 19.5151 25.8464 20.3046Z" fill="#0A58CA"/>
</svg>
