<svg width="40" height="40" viewBox="0 0 40 40" fill="none" xmlns="http://www.w3.org/2000/svg">
<ellipse cx="20" cy="20.5" rx="18" ry="17.5" fill="white"/>
<path d="M18.8239 0.0420968C15.1017 0.25422 11.3656 1.57307 8.35373 3.74502C6.36116 5.18377 4.53464 7.09287 3.23394 9.09881C0.429588 13.4335 -0.59437 18.5613 0.332727 23.6477C1.19064 28.3513 3.77821 32.649 7.54656 35.6464C12.099 39.2664 17.9014 40.7143 23.6439 39.6675C28.344 38.8098 32.652 36.2229 35.6454 32.4554C39.2662 27.904 40.7145 22.1075 39.6675 16.3617C38.8096 11.6581 36.222 7.36033 32.4536 4.36294C29.165 1.7483 25.2952 0.277276 21.061 0.0374855C20.1615 -0.0132395 19.7695 -0.0132395 18.8239 0.0420968ZM11.338 7.3465C11.8546 7.45256 12.2282 7.66007 12.6248 8.05665C13.1691 8.60079 13.4182 9.21871 13.4182 10.0026C13.4136 10.6713 13.1829 11.2615 12.7355 11.7227C11.7669 12.7326 10.0926 12.9124 8.92106 12.1377C8.28916 11.7181 7.87865 11.0586 7.76795 10.307C7.69415 9.77668 7.7864 9.1726 8.01241 8.71607C8.32605 8.07048 9.06866 7.50789 9.80664 7.35111C10.1987 7.26349 10.9505 7.26349 11.338 7.3465ZM27.7259 14.4019C28.4132 14.5079 28.819 14.6324 29.4325 14.9322C31.2544 15.8222 32.3291 17.6022 32.6935 20.3275C32.7396 20.6595 32.7534 22.0936 32.7534 26.3223V31.8789H30.0782H27.403L27.3754 26.5528C27.3477 20.8163 27.3615 21.0884 27.1125 20.3736C26.8265 19.5482 26.3145 19.0271 25.5581 18.7919C25.1337 18.6628 24.3127 18.6536 23.9022 18.7781C23.1458 19.004 22.5831 19.4836 22.2048 20.2168C21.7989 21.0007 21.8312 20.4981 21.8082 26.539L21.7943 31.902H19.1007H16.4116L16.384 23.9336C16.3655 19.5528 16.3424 15.6838 16.3286 15.3334L16.3009 14.7016H18.6118H20.918L20.941 14.8492C20.9733 15.0336 21.1993 16.9704 21.1993 17.0488C21.1993 17.1687 21.3008 17.0765 21.5406 16.7306C22.2141 15.7761 23.0858 15.0936 24.119 14.7247C24.5018 14.5863 25.2306 14.4111 25.6042 14.365C25.9916 14.3143 27.3062 14.3373 27.7259 14.4019ZM13.266 23.3018V31.902H10.5908H7.91555V23.3018V14.7016H10.5908H13.266V23.3018Z" fill="#0A58CA"/>
</svg>
