<svg width="112" height="31" viewBox="0 0 112 31" fill="none" xmlns="http://www.w3.org/2000/svg">
<path d="M95.2459 8.43675V14.5603H99.9912C100.91 14.5603 101.683 14.2487 102.333 13.6408C102.974 13.0328 103.305 12.3097 103.305 11.4934C103.305 10.6823 102.974 9.96595 102.333 9.35799C101.683 8.74496 100.91 8.43675 99.9912 8.43675H95.2459ZM100.408 1.4834C103.591 1.4834 106.17 2.43004 108.157 4.32503C110.155 6.21662 111.143 8.60102 111.143 11.485C111.143 14.3673 110.155 16.7584 108.15 18.6568C106.151 20.5467 103.583 21.495 100.408 21.495H95.2459V30.0606H87.396V1.4834" fill="#042354"/>
<path d="M66.452 21.6129C68.0258 23.1692 69.9955 23.9397 72.363 23.9397C73.8339 23.9397 75.2122 23.6383 76.5203 23.0252C77.8215 22.4122 78.7626 21.8009 79.3455 21.1726L80.2181 20.2581L84.7508 25.1624C84.6496 25.3216 84.4885 25.5333 84.2759 25.7907C84.0702 26.0498 83.5833 26.507 82.829 27.1641C82.0661 27.8211 81.2398 28.402 80.3604 28.9083C79.4809 29.4147 78.3186 29.8651 76.8717 30.2733C75.4248 30.6763 73.9265 30.8795 72.363 30.8795C67.8697 30.8795 64.0656 29.396 60.9336 26.4206C57.8118 23.4537 56.2517 19.9042 56.2517 15.7721C56.2517 11.6367 57.8118 8.09061 60.9336 5.11689C64.0656 2.15164 67.8697 0.663086 72.363 0.663086C73.9128 0.663086 75.3871 0.864608 76.786 1.25749C78.1798 1.66223 79.3386 2.1364 80.2404 2.69524C81.1507 3.25239 81.941 3.81462 82.6182 4.37177C83.3039 4.93061 83.7839 5.40986 84.0908 5.80613L84.5502 6.39037L79.7878 11.2912C79.7107 11.1795 79.6078 11.044 79.4655 10.8814C79.3318 10.7138 79.0163 10.4225 78.5415 10.0059C78.0512 9.58255 77.554 9.2066 77.0226 8.88653C76.5048 8.56308 75.8088 8.26842 74.9568 8.00932C74.1065 7.74683 73.2356 7.61982 72.363 7.61982C69.9955 7.61982 68.0258 8.39712 66.452 9.94495C64.8765 11.4928 64.0811 13.4369 64.0811 15.7721C64.0811 18.1091 64.8765 20.0583 66.452 21.6129Z" fill="#042354"/>
<path d="M44.0096 22.2919C45.0673 21.1895 45.5919 19.8347 45.5919 18.2242V1.48438H53.4401V18.2242C53.4401 21.8161 52.1938 24.8152 49.6909 27.2436C47.1862 29.6636 44.0301 30.8812 40.2278 30.8812C36.4151 30.8812 33.2693 29.6636 30.7663 27.2436C28.2634 24.8152 27.0171 21.8161 27.0171 18.2242V1.48438H34.8585V18.2242C34.8585 19.8347 35.3899 21.1895 36.4442 22.2919C37.4934 23.3944 38.7603 23.9414 40.2278 23.9414C41.6901 23.9414 42.9553 23.3944 44.0096 22.2919Z" fill="#042354"/>
<path d="M8.29502 8.43675V14.5603H13.0317C13.9506 14.5603 14.7255 14.2487 15.3752 13.6408C16.0181 13.0328 16.3404 12.3097 16.3404 11.4934C16.3404 10.6823 16.0181 9.96595 15.3752 9.35799C14.7255 8.74496 13.9506 8.43675 13.0317 8.43675H8.29502ZM13.462 1.4834C16.6284 1.4834 19.2085 2.43004 21.2074 4.32503C23.1892 6.21662 24.1938 8.60102 24.1938 11.485C24.1938 14.3673 23.1892 16.7584 21.192 18.6568C19.2016 20.5467 16.6198 21.495 13.462 21.495H8.29502V30.0606H0.439941V1.4834" fill="#042354"/>
</svg>
