<svg width="62" height="61" viewBox="0 0 62 61" fill="none" xmlns="http://www.w3.org/2000/svg">
<path d="M49.5923 44.7537C49.9694 44.3761 50.2677 43.9137 50.4529 43.3938L51.7626 39.3583H49.7226C48.1077 41.78 44.2315 41.4125 41.0206 39.4396C35.9633 36.327 32.4575 34.4151 29.9751 34.2729C29.6271 34.2508 29.298 34.2661 28.9894 34.3169C28.9877 34.3186 28.986 34.3186 28.9825 34.3186C29.3717 38.1509 30.1329 40.5234 30.5649 41.6174C30.7535 42.0983 30.8786 42.332 30.8786 42.332L30.414 42.2389C30.414 42.2389 30.2683 42.0679 30.03 41.7072C29.43 40.7995 28.2402 38.686 27.2956 35.079C26.5842 35.6412 26.0836 36.4557 25.9293 37.3854C25.9002 37.6496 25.8865 37.9189 25.8865 38.1848L26.9185 40.5624L28.2574 43.6479C27.7808 43.4717 27.1756 43.2245 26.4813 42.9383C21.7206 40.9824 12.0621 37.0247 4.74186 40.3998C3.67383 37.4633 3.08924 34.2966 3.08924 30.9977C3.08924 15.6516 15.6879 3.2114 31.2249 3.2114C46.7619 3.2114 59.3485 15.6516 59.3485 30.9977C59.3485 33.5023 58.8222 37.123 58.3782 38.2389C56.8405 41.6851 53.6432 43.7308 49.5923 44.7537ZM51.3289 50.1152C48.2739 52.7163 43.9247 52.1541 40.9555 51.453C36.4073 50.3692 29.1437 46.3049 27.2391 45.0653C27.2854 45.0094 27.4054 44.835 27.4516 44.7876C31.002 46.0441 45.315 49.597 54.6153 44.9264C54.6838 44.9959 54.7456 45.0771 54.8124 45.1449C54.8776 45.2109 55.0507 45.3667 55.121 45.4379C54.1318 47.0331 52.5101 48.9433 51.3289 50.1152ZM41.8829 56.2997C41.4303 56.464 38.0359 57.5309 35.3976 56.8094C34.8919 56.6638 34.4101 56.5063 33.9147 56.3268C30.3043 55.0093 26.9716 52.8247 23.8207 50.398C19.852 47.3396 16.9685 43.3752 11.6232 40.896C11.6455 40.8452 11.6849 40.7351 11.7021 40.6267C14.6661 40.9705 18.376 41.3329 23.2601 44.2897C25.1442 45.4311 32.8809 49.9357 33.9147 50.4369C36.0079 51.4344 38.1697 52.2676 40.3966 52.9196C41.6463 53.2752 42.9115 53.5749 44.2161 53.7832C44.2161 53.7832 45.255 53.9102 45.5687 53.939L45.7693 54.4064C44.9721 54.8975 42.8549 55.9593 41.8829 56.2997ZM32.0718 58.3386C18.184 59.226 7.82252 48.6673 5.65046 42.1813C5.72074 42.1288 5.87332 42.0391 5.87332 42.0391C9.22827 41.1009 12.4804 42.7876 16.1713 45.8528C18.8405 48.0678 24.1636 54.1422 30.6866 57.0567C31.3003 57.3751 31.5506 57.5004 32.2312 57.7341C32.2158 57.8086 32.1112 58.1845 32.0718 58.3386ZM31.2249 0.998047C14.4501 0.998047 0.857178 14.4306 0.857178 30.9977C0.857178 47.5682 14.4501 60.9991 31.2249 60.9991C48.0014 60.9991 61.596 47.5682 61.596 30.9977C61.596 14.4306 48.0014 0.998047 31.2249 0.998047Z" fill="#042354"/>
<path d="M46.3075 27.7476C46.6572 25.4784 47.4115 23.3395 48.4967 21.4073C47.1492 20.6181 45.6835 20.0051 44.132 19.6021C42.7331 19.238 41.2622 19.0449 39.7484 19.0449C36.7569 19.0449 33.9454 19.8002 31.4956 21.1262C31.0516 21.934 30.671 22.7807 30.3608 23.6596L30.3539 23.6664L30.3436 23.6969C29.3373 23.9678 28.379 24.3539 27.4824 24.8383C26.5018 26.3133 25.9292 28.0812 25.9292 29.9796C25.9292 31.2497 26.1846 32.4605 26.6492 33.5647C26.8155 33.9643 27.0109 34.3504 27.2304 34.7213L26.9835 33.2158C27.6898 32.7349 28.5813 32.5029 29.6219 32.5029C32.346 32.5029 36.0798 34.0964 40.0896 36.9821C40.057 36.8974 40.0245 36.8127 39.9936 36.7264C39.3559 35.0007 39.0096 33.1379 39.0096 31.1938C39.0096 28.9483 39.4724 26.8094 40.3107 24.8653C38.9804 24.1405 37.5112 23.6308 35.9529 23.3903L36.0163 23.1837C37.9073 23.3328 39.709 23.7883 41.3719 24.5029C40.825 26.088 40.5285 27.79 40.5285 29.5596C40.5285 31.5223 40.8936 33.4021 41.5605 35.1345C44.0274 36.0659 46.2166 37.5561 47.9653 39.4477L48.195 39.3461C46.8441 36.7382 46.0829 33.7865 46.0829 30.657C46.0829 29.668 46.1601 28.696 46.3075 27.7476Z" fill="#042354"/>
<path d="M18.1805 21.8378C18.3605 23.7582 18.6897 27.0452 18.6897 27.0452H19.2725C19.2725 27.0452 19.6085 23.7582 19.7954 21.8378C19.9034 20.6744 20.3714 20.163 21.2097 19.9615C21.8989 19.7921 24.035 19.4873 24.035 19.4873V18.9471C24.035 18.9471 21.808 18.7117 21.0914 18.4729C20.5566 18.2917 20.0028 18.0902 19.7251 17.1266C19.5108 16.3866 19.2554 14.0801 19.2554 14.0801H18.7085C18.7085 14.0801 18.4497 16.3866 18.2354 17.1266C17.9679 18.0902 17.4125 18.2917 16.8742 18.4729C16.1576 18.7117 13.929 18.9471 13.929 18.9471V19.4873C13.929 19.4873 16.0599 19.7921 16.7542 19.9615C17.5908 20.163 18.0605 20.6744 18.1805 21.8378Z" fill="#042354"/>
<path d="M41.0429 16.3489L40.5628 18.425C39.1605 17.2616 37.3896 16.5182 35.4473 16.3929L35.3684 16.0864C36.1553 15.7409 37.0245 15.5479 37.9416 15.5479C39.0679 15.5479 40.1257 15.8391 41.0429 16.3489Z" fill="#042354"/>
</svg>
